<svg width="76" viewBox="0 0 76 25" xmlns="http://www.w3.org/2000/svg" class="logged-out-logo-image" aria-hidden="true"><g fill="none" fill-rule="evenodd"><path d="M74.058 13.31l-.29-.242 1.337-9.777.062-.455c.034-.25.003-.5-.08-.728v-.001l-.001-.001a1.676 1.676 0 0 0-.114-.245 1.442 1.442 0 0 0-.145-.203 1.985 1.985 0 0 0-.071-.083l-.01-.01c-.391-.426-.94-.704-.944-.706-.983-.572-2.08-.667-2.694-.667-2.424 0-3.82 1.316-4.144 3.91l-.125.925h-.183c-.935 0-1.887.201-2.783.6.178-.466.278-.978.278-1.529 0-2.27-1.603-3.857-3.897-3.857-2.455 0-4.306 1.784-4.306 4.15 0 .366.04.712.119 1.036a3.804 3.804 0 0 0-.802.382c-.846-.524-1.88-.807-3.085-.807-.92 0-1.691.166-2.335.441-.72-.335-1.525-.393-2.214-.393-1.34 0-2.3.14-3.069.448-.955-.434-1.974-.496-2.44-.496-1.421 0-2.327.486-2.911 1.129-.93-.965-2.26-1.081-3.2-1.081-1.448 0-2.451.162-3.249.523-.733-.359-1.716-.595-3.056-.595-1.783 0-3.335.424-4.6 1.192-.623-.653-1.659-1.168-3.383-1.168-.547 0-1.02.05-1.447.164l.248-1.887.06-.452a1.522 1.522 0 0 0-.073-.694l-.006-.026-.016-.04a1.251 1.251 0 0 0-.089-.189l-.001-.001a1.65 1.65 0 0 0-.101-.155l-.026-.032c-.39-.497-1.053-.83-1.053-.83-.982-.573-2.079-.668-2.693-.668-2.425 0-3.82 1.316-4.145 3.91l-.228 1.759c-1.072-.593-2.41-.909-3.996-.909C3.277 4.952 0 8.298 0 13.277c0 4.142 2.545 6.616 6.81 6.616 1.899 0 3.546-.46 4.862-1.298.662.794 1.702 1.249 3 1.249 1.085 0 1.877-.108 2.492-.338l.91-.34c.568.416 1.304.678 2.302.678 1.807 0 3.014-.38 3.819-.918 1.057.637 2.413.967 4.044.967 1.798 0 3.243-.475 4.318-1.208.782.701 1.927 1.159 3.525 1.159 1.099 0 2.06-.173 2.892-.522.899.546 1.894.546 2.282.546.358 0 .688-.017 1.005-.042-.07.488-.116.854-.116 1.19 0 1.822 1.185 3.546 3.826 3.66 1.118.049 2.173-.217 2.882-.458a1.502 1.502 0 0 0 1.003-1.23l.066-.5.367-2.813c1.672-.155 3.128-.693 4.306-1.542.634.992 1.791 1.71 3.542 1.71 1.55 0 2.677-.201 3.546-.635.092-.046.175-.1.261-.152.878.513 1.964.788 3.245.788.918 0 1.76-.169 2.498-.489.578.33 1.28.513 2.074.513 5.09 0 5.486-3.027 5.486-3.954 0-1.335-.646-2.153-1.189-2.604" fill="#1A1A1A"></path><path d="M69.78 17.573c-.914 0-1.54-.39-1.54-1.416 0-.048.025-.268.048-.39-.578 1.318-1.805 1.782-3.08 1.782-2.238 0-3.538-1-3.538-3.808 0-4.224 2.238-6.42 5.006-6.42 1.034 0 1.684.145 2.094.463l.456-3.393c.194-1.537.698-1.904 1.902-1.904.673 0 1.348.17 1.756.489L71.49 13.178c-.12.856-.145 1.296-.145 1.589 0 .243.072.414.433.414.217 0 .602-.025.866-.097.265.22.361.462.361.83 0 1.123-1.227 1.66-3.224 1.66M58.156 17.549c-1.18 0-1.876-.464-1.876-1.513 0-.415.07-1.1.144-1.612l.817-4.76-1.106.025c-.194-.245-.241-.562-.241-.88 0-1.073.938-1.465 3.08-1.465 1.588 0 1.925.464 1.781 1.466l-.555 3.808c-.168 1.123-.336 1.904-.336 2.221 0 .171.073.342.361.342.217 0 .602-.025.89-.097.265.195.385.488.385.805 0 1.148-1.01 1.66-3.344 1.66M60.273 2.536c1.13 0 1.636.659 1.636 1.562 0 1.074-.746 1.807-1.997 1.807-.89 0-1.684-.319-1.684-1.514 0-1.05.77-1.855 2.045-1.855M49.288 17.427c-.265 0-.747 0-.963-.024l-.627 4.784c-.456.171-1.202.195-1.708.195-1.058 0-1.564-.438-1.564-1.366 0-.269.073-.733.169-1.392l1.3-9.96-1.107.025c-.17-.245-.217-.562-.217-.88 0-1.073.938-1.465 3.08-1.465 1.396 0 1.78.318 1.66 1.124l-.144.904c.65-1.71 1.78-2.076 3.032-2.076 2.334 0 3.368 1.415 3.368 4.053 0 3.832-2.454 6.078-6.28 6.078" fill="#FFF"></path><path d="M41.275 17.573c-1.179 0-1.684-.366-1.516-1.513l.071-.488c-.697 1.294-1.732 1.977-3.729 1.977-1.708 0-2.671-.708-2.671-2.294 0-.684.049-1.123.266-2.27l.6-3.321-1.106.025c-.193-.245-.241-.562-.241-.88 0-1.073.939-1.465 3.08-1.465 1.588 0 1.95.464 1.781 1.466l-.602 3.808c-.12.683-.24 1.49-.24 1.904 0 .488.264.66.914.66.674 0 1.396-.318 1.852-1.074l.651-4.884c.192-1.537.554-1.928 1.756-1.928.674 0 1.444.17 1.852.488l-.77 5.81c-.047.415-.12.855-.12 1.27 0 .17.097.317.386.317.216 0 .553-.025.842-.097.265.195.385.513.385.83 0 1.146-1.107 1.66-3.441 1.66M32.084 9.957c-.553-.17-1.131-.268-2.021-.268-1.733 0-2.72 1.025-2.72 3.222 0 1.611.482 2.197 1.756 2.197.723 0 1.565-.171 2.48-.512.337.17.505.659.505 1.025 0 1.245-1.107 1.977-3.826 1.977-2.912 0-4.476-1.196-4.476-4.297 0-3.857 2.31-6.029 5.944-6.029 2.286 0 2.84.708 2.84 1.635 0 .513-.17.806-.482 1.05M20.395 17.549c-.938 0-1.275-.342-1.78-1.44l-1.613-3.345-.601 4.59c-.457.17-1.203.195-1.71.195-1.058 0-1.539-.439-1.539-1.368 0-.267.048-.731.144-1.39l1.348-10.4c.193-1.537.698-1.904 1.901-1.904.673 0 1.348.17 1.757.489l-1.131 8.593c2.863-4.029 3.128-4.273 4.572-4.273 1.515 0 2.045.44 2.045 1.318 0 .513-.144.855-.385 1.123-.361-.024-.722-.024-1.01-.024-.506 0-.794.122-2.215 2.1l1.637 3.002c.12.195.24.366.505.366.217 0 .578-.025.866-.097.24.17.337.513.337.83 0 1.146-1.13 1.635-3.128 1.635M6.828 17.598c-2.742 0-4.547-1.221-4.547-4.32 0-3.614 2.165-6.031 5.896-6.031 3.488 0 4.716 1.758 4.716 4.37 0 3.687-2.214 5.981-6.065 5.981" fill="#FFF"></path><path d="M51.12 9.36c-.624 0-1.176.275-1.488.699l-.672 4.961c.24.075.529.1.936.1 1.511 0 2.664-1.098 2.664-3.59 0-1.571-.432-2.17-1.44-2.17M64.8 13.142c0 1.552.579 1.978 1.536 1.978.554 0 1.057-.2 1.41-.576l.654-5.009c-.327-.15-.655-.175-1.058-.175-1.536 0-2.542 1.302-2.542 3.782M8.277 9.36c-1.616 0-2.517 1.54-2.517 3.6 0 1.49.45 2.16 1.749 2.16 1.457 0 2.571-1.316 2.571-3.575 0-1.464-.424-2.185-1.803-2.185" fill="#1A1A1A"></path></g></svg>